# xmcd CD database file
#
# Track frame offsets:
#	150
#	12810
#	17692
#	29911
#	41917
#	57544
#	63351
#	74253
#	81489
#	89135
#	103334
#	114990
#	129880
#	135735
#	144609
#	149570
#
# Disc length: 2150 seconds
#
# Revision: 0
# Processed by: cddbd v1.5.1PL0 Copyright (c) Steve Scherf et al.
# Submitted via: CDex 1.50beta9
#
DISCID=f8086410
DTITLE=Rydin' High - Way Out In California
DYEAR=2003
DGENRE=Country
TTITLE0=The Ballad Of Black Bart
TTITLE1=Way Out West
TTITLE2=Charlie Parkhurst
TTITLE3=Serenade Of The Bells
TTITLE4=Elias
TTITLE5=Grange Hall No 4
TTITLE6=Paint The Town
TTITLE7=Vamos al Baile
TTITLE8=Ode To Mammoth Orange
TTITLE9=Estrellita
TTITLE10=West Of Old California
TTITLE11=Always Wanted To
TTITLE12=Faithful Companion
TTITLE13=Prarie Critters' Dance
TTITLE14=Indio
TTITLE15=San Joaquin Valley
EXTD=YEAR: 2003
EXTT0=
EXTT1=
EXTT2=
EXTT3=
EXTT4=
EXTT5=
EXTT6=
EXTT7=
EXTT8=
EXTT9=
EXTT10=
EXTT11=
EXTT12=
EXTT13=
EXTT14=
EXTT15=
PLAYORDER=
